<svg width="24" height="18" viewBox="0 0 24 18" fill="none" xmlns="http://www.w3.org/2000/svg">
  <path
    d="M15.6 12H17.4C17.7 12 18 11.7 18 11.4V5.1C18 4.8 17.7 4.5 17.4 4.5H15.6C15.3 4.5 15 4.8 15 5.1V11.4C15 11.7 15.3 12 15.6 12ZM20.1 12H21.9C22.2 12 22.5 11.7 22.5 11.4V0.6C22.5 0.3 22.2 0 21.9 0H20.1C19.8 0 19.5 0.3 19.5 0.6V11.4C19.5 11.7 19.8 12 20.1 12ZM6.6 12H8.4C8.7 12 9 11.7 9 11.4V8.1C9 7.8 8.7 7.5 8.4 7.5H6.6C6.3 7.5 6 7.8 6 8.1V11.4C6 11.7 6.3 12 6.6 12ZM11.1 12H12.9C13.2 12 13.5 11.7 13.5 11.4V2.1C13.5 1.8 13.2 1.5 12.9 1.5H11.1C10.8 1.5 10.5 1.8 10.5 2.1V11.4C10.5 11.7 10.8 12 11.1 12ZM23.25 15H3V0.75C3 0.335625 2.66438 0 2.25 0H0.75C0.335625 0 0 0.335625 0 0.75V16.5C0 17.3283 0.671719 18 1.5 18H23.25C23.6644 18 24 17.6644 24 17.25V15.75C24 15.3356 23.6644 15 23.25 15Z"
    fill="currentColor" />
</svg>