<svg width="21" height="25" viewBox="0 0 21 25" fill="none" xmlns="http://www.w3.org/2000/svg">
  <path
    d="M15.4301 5.52031C16.4617 4.28035 17.0817 2.68328 17.0817 1.03165C17.0817 0.466226 16.6155 0 16.0501 0H4.95489C4.38947 0 3.92324 0.466226 3.92324 1.03165C3.92324 2.68328 4.48866 4.28035 5.57487 5.52031C2.16745 7.53401 0 11.5564 0 15.9955C0 23.4254 5.98654 24.3033 10.4752 24.3033C14.9639 24.3033 20.9504 23.4254 21 15.9955C21 11.611 18.8325 7.58361 15.4301 5.52031ZM10.4752 22.24C4.48866 22.24 2.0137 20.4346 2.0137 15.9955C2.0137 12.0723 4.0274 8.51606 7.17194 6.96363C7.58361 6.75531 7.89608 6.34365 7.94568 5.88238C7.99528 5.41615 7.84152 4.90033 7.47945 4.59282C6.75531 3.92324 6.23949 3.04535 6.03614 2.0633H14.9093C14.701 3.04535 14.1852 3.92324 13.466 4.59282C13.1039 4.90033 12.9502 5.41615 12.9998 5.88238C13.0494 6.34861 13.3618 6.76027 13.7735 6.96363C16.923 8.5111 18.9317 12.0723 18.9317 15.9955C18.9367 20.4346 16.4617 22.24 10.4752 22.24Z"
    fill="#7D848F" />
  <path
    d="M13.0989 15.8467C13.0989 14.4133 11.9333 13.2477 10.4999 13.2477C9.93448 13.2477 9.47321 12.7865 9.47321 12.221C9.47321 11.6556 9.93448 11.1944 10.4999 11.1944C10.7876 11.1944 11.0504 11.3084 11.2488 11.5167C11.5464 11.8342 12.0474 11.8491 12.3598 11.5515C12.6773 11.2539 12.6922 10.7529 12.3946 10.4405C12.092 10.1181 11.7051 9.88 11.2885 9.74608V9.28978C11.2885 8.85331 10.9364 8.50116 10.4999 8.50116C10.0634 8.50116 9.71128 8.85331 9.71128 9.28978V9.74608C8.6598 10.0784 7.90094 11.0654 7.90094 12.226C7.90094 13.6594 9.0665 14.825 10.4999 14.825C11.0653 14.825 11.5266 15.2862 11.5266 15.8517C11.5266 16.4171 11.0653 16.8783 10.4999 16.8783C10.2122 16.8783 9.94936 16.7643 9.75096 16.556C9.45337 16.2385 8.95243 16.2236 8.63996 16.5212C8.32253 16.8188 8.30765 17.3198 8.60524 17.6322C8.90779 17.9546 9.29466 18.1927 9.71128 18.3266V18.7829C9.71128 19.2194 10.0634 19.5715 10.4999 19.5715C10.9364 19.5715 11.2885 19.2194 11.2885 18.7829V18.3266C12.335 17.9894 13.0989 17.0023 13.0989 15.8467Z"
    fill="#7D848F" />
</svg>