<svg width="471" height="371" viewBox="0 0 471 371" fill="none" xmlns="http://www.w3.org/2000/svg">
  <g clip-path="url(#clip0_181_339)">
    <path
      d="M123.538 167.437C122.501 167.437 121.658 168.28 121.658 169.318V184.365C121.658 185.402 122.501 186.246 123.538 186.246C124.575 186.246 125.418 185.402 125.418 184.365V169.318C125.418 168.28 124.575 167.437 123.538 167.437Z"
      fill="#3F3D56" />
    <path
      d="M337.371 0H168.267C149.091 0 133.545 15.5536 133.545 34.74V333.714C133.545 352.901 149.091 368.454 168.267 368.454H337.371C356.548 368.454 372.093 352.901 372.093 333.714V34.74C372.093 15.5536 356.548 0 337.371 0Z"
      fill="white" />
    <path
      d="M337.371 371H168.267C148.668 371 132.723 355.047 132.723 335.438V36.4637C132.723 16.8545 148.668 0.901001 168.267 0.901001H337.371C356.97 0.901001 372.915 16.8545 372.915 36.4637V335.438C372.915 355.047 356.97 371 337.371 371ZM168.267 2.54628C149.574 2.54628 134.367 17.7615 134.367 36.4637V335.438C134.367 354.14 149.574 369.355 168.267 369.355H337.371C356.064 369.355 371.271 354.14 371.271 335.438V36.4637C371.271 17.7615 356.064 2.54628 337.371 2.54628H168.267Z"
      fill="#3F3D56" />
    <path
      d="M349.62 72.8501H281.649C278.766 72.8501 276.421 70.5033 276.421 67.6189C276.421 64.7344 278.766 62.3876 281.649 62.3876H349.62C352.503 62.3876 354.849 64.7344 354.849 67.6189C354.849 70.5033 352.503 72.8501 349.62 72.8501Z"
      fill="#E6E6E6" />
    <path
      d="M285.855 113.988H219.784C218.119 113.988 216.763 112.632 216.763 110.965C216.763 109.299 218.119 107.943 219.784 107.943H285.855C287.521 107.943 288.875 109.299 288.875 110.965C288.875 112.632 287.521 113.988 285.855 113.988V113.988Z"
      fill="#6C63FF" />
    <path
      d="M192.547 12.9592H154.672C154.574 12.9592 154.494 13.039 154.494 13.1374V17.6849C154.494 17.7834 154.574 17.8632 154.672 17.8632H192.547C192.646 17.8632 192.726 17.7834 192.726 17.6849V13.1374C192.726 13.039 192.646 12.9592 192.547 12.9592Z"
      fill="#E6E6E6" />
    <path
      d="M319.528 17.8631C321.694 17.8631 323.449 16.1066 323.449 13.9399C323.449 11.7732 321.694 10.0167 319.528 10.0167C317.363 10.0167 315.607 11.7732 315.607 13.9399C315.607 16.1066 317.363 17.8631 319.528 17.8631Z"
      fill="#E6E6E6" />
    <path
      d="M330.311 17.8631C332.477 17.8631 334.232 16.1066 334.232 13.9399C334.232 11.7732 332.477 10.0167 330.311 10.0167C328.146 10.0167 326.39 11.7732 326.39 13.9399C326.39 16.1066 328.146 17.8631 330.311 17.8631Z"
      fill="#E6E6E6" />
    <path
      d="M341.095 17.8631C343.26 17.8631 345.016 16.1066 345.016 13.9399C345.016 11.7732 343.26 10.0167 341.095 10.0167C338.929 10.0167 337.173 11.7732 337.173 13.9399C337.173 16.1066 338.929 17.8631 341.095 17.8631Z"
      fill="#E6E6E6" />
    <path
      d="M167.855 130.167C167.855 130.71 168.291 131.146 168.834 131.146H336.804C337.347 131.146 337.783 130.71 337.783 130.167C337.783 129.624 337.347 129.188 336.804 129.188H168.834C168.291 129.188 167.855 129.624 167.855 130.167Z"
      fill="#3F3D56" />
    <path
      d="M301.073 268.624C301.073 269.167 301.509 269.603 302.051 269.603H470.022C470.564 269.603 471 269.167 471 268.624C471 268.081 470.564 267.645 470.022 267.645H302.051C301.509 267.645 301.073 268.081 301.073 268.624Z"
      fill="#3F3D56" />
    <path
      d="M320.697 207.109H219.895C218.229 207.109 216.874 205.753 216.874 204.087C216.874 202.42 218.229 201.065 219.895 201.065H320.697C322.362 201.065 323.717 202.42 323.717 204.087C323.717 205.753 322.362 207.109 320.697 207.109Z"
      fill="#6C63FF" />
    <path
      d="M189.321 211.117C193.408 211.117 196.721 207.802 196.721 203.713C196.721 199.624 193.408 196.31 189.321 196.31C185.234 196.31 181.921 199.624 181.921 203.713C181.921 207.802 185.234 211.117 189.321 211.117Z"
      fill="#6C63FF" />
    <path
      d="M188.499 216.053V214.408C194.619 214.408 199.599 209.426 199.599 203.302C199.599 197.178 194.619 192.196 188.499 192.196V190.551C195.526 190.551 201.243 196.271 201.243 203.302C201.243 210.333 195.526 216.053 188.499 216.053Z"
      fill="#3F3D56" />
    <path
      d="M100.361 173.855C103.38 170.781 107.412 169.848 109.366 171.771C111.321 173.693 110.458 177.742 107.438 180.816C106.249 182.061 104.779 183.002 103.151 183.562L90.1969 196.422L84.2944 190.212L97.6914 178.193C98.2224 176.554 99.138 175.067 100.361 173.855H100.361Z"
      fill="#FFB6B6" />
    <path
      d="M58.9332 163.239L72.5151 193.385L94.2033 181.639L101.965 185.761C101.965 185.761 84.2355 215.417 72.096 212.041C59.9565 208.665 38.3999 178.054 42.2838 168.607C46.1678 159.159 58.9332 163.239 58.9332 163.239Z"
      fill="#E6E6E6" />
    <path
      d="M0 369.991C0 370.37 0.30435 370.675 0.683347 370.675H419.451C419.83 370.675 420.134 370.37 420.134 369.991C420.134 369.612 419.83 369.307 419.451 369.307H0.683347C0.30435 369.307 0 369.612 0 369.991Z"
      fill="#3F3D56" />
    <path
      d="M125.363 222.61C145.945 222.61 162.629 206.269 162.629 186.11C162.629 165.952 145.945 149.611 125.363 149.611C104.782 149.611 88.0977 165.952 88.0977 186.11C88.0977 206.269 104.782 222.61 125.363 222.61Z"
      fill="#6C63FF" />
    <path d="M52.9776 364.151L62.881 364.15L67.5921 325.931L52.9756 325.932L52.9776 364.151Z"
      fill="#FFB6B6" />
    <path
      d="M86.9078 363.926C87.2162 364.446 87.3789 366.123 87.3789 366.727C87.3789 368.585 85.874 370.09 84.0176 370.09H53.348C52.0816 370.09 51.0549 369.063 51.0549 367.796V366.519C51.0549 366.519 49.5377 362.679 52.6614 357.946C52.6614 357.946 56.5436 361.652 62.3447 355.848L64.0554 352.747L76.4385 361.808L83.3023 362.654C84.8039 362.838 86.1353 362.625 86.9077 363.926H86.9078Z"
      fill="#2F2E41" />
    <path d="M60.4717 165.174L60.672 151.809L52.4349 146.672L43.478 157.634L60.4717 165.174Z"
      fill="#FFB6B6" />
    <path opacity="0.1"
      d="M60.4714 165.174L61.0045 152.142L52.4346 146.672L55.3462 162.799L60.4714 165.174Z"
      fill="black" />
    <path
      d="M80.4759 253.545L66.8295 346.455H49.7081L51.9847 293.42L53.183 265.533L49.7081 252.259C49.7081 252.259 48.1238 249.309 46.7891 245.732C45.2846 241.696 44.0964 236.857 45.8604 234.563C46.5095 233.717 48.197 233.091 50.4903 232.625C51.8915 232.338 53.5225 232.115 55.2832 231.942C65.4082 230.94 79.8103 231.566 79.8103 231.566L80.1764 243.654L80.3794 250.404L80.476 253.545L80.4759 253.545Z"
      fill="#2F2E41" />
    <path d="M35.5322 359.607L45.3304 361.048L55.5478 323.921L41.0866 321.795L35.5322 359.607Z"
      fill="#FFB6B6" />
    <path
      d="M69.1345 364.323C69.3641 364.882 69.2812 366.565 69.1934 367.162C68.9234 369 67.2156 370.271 65.379 370.001L35.0355 365.537C33.7826 365.353 32.9162 364.187 33.1004 362.934L33.2861 361.67C33.2861 361.67 32.3433 357.65 36.1217 353.422C36.1217 353.422 39.424 357.654 46.0072 352.755L48.1505 349.937L59.0845 360.704L65.7524 362.539C67.2112 362.94 68.5594 362.923 69.1344 364.323H69.1346L69.1345 364.323Z"
      fill="#2F2E41" />
    <path
      d="M80.6906 238.05L78.8189 254.178L68.6113 288.163L51.808 344.115L34.8706 341.625L50.0717 262.069L48.5666 248.428C48.5666 248.428 48.0764 247.072 47.5145 245.087C46.3992 241.159 45.0004 234.764 46.5393 231.501C46.7471 231.058 47.008 230.673 47.3307 230.361C47.936 229.774 49.1662 229.417 50.8144 229.228C57.7037 228.449 71.8917 230.677 78.205 231.771L80.6906 238.05V238.05Z"
      fill="#2F2E41" />
    <path
      d="M45.3609 154.806L62.003 162.799C62.003 162.799 79.6436 215.082 79.6436 217.746C79.6436 220.41 84.6362 222.075 81.6406 225.072C78.645 228.069 87.2162 230.607 82.5978 233.002C77.9794 235.396 49.1689 248.491 45.9653 247.31C37.1297 244.053 46.3398 232.085 46.3398 232.085C46.3398 232.085 39.7026 226.737 40.7011 224.073C41.6996 221.409 34.71 170.458 34.71 170.458L45.3609 154.806H45.3609Z"
      fill="#E6E6E6" />
    <path
      d="M96.0711 200.876C100.201 199.655 104.179 200.798 104.955 203.428C105.731 206.058 103.012 209.178 98.8802 210.399C97.2364 210.909 95.4944 211.018 93.7998 210.717L76.2347 215.669L74.0879 207.372L91.632 203.371C92.8912 202.197 94.4134 201.341 96.0711 200.876H96.0711Z"
      fill="#FFB6B6" />
    <path
      d="M65.0028 171.473L62.2498 204.425L86.9101 204.691L91.6961 212.064C91.6961 212.064 61.8064 229.38 52.8313 220.532C43.8563 211.684 39.8629 174.452 47.8425 168.079C55.822 161.706 65.0028 171.473 65.0028 171.473Z"
      fill="#E6E6E6" />
    <path
      d="M60.1245 155.686C67.998 155.686 74.3808 149.3 74.3808 141.423C74.3808 133.545 67.998 127.159 60.1245 127.159C52.2509 127.159 45.8682 133.545 45.8682 141.423C45.8682 149.3 52.2509 155.686 60.1245 155.686Z"
      fill="#FFB6B6" />
    <path
      d="M52.4351 141.479C52.4351 141.479 54.6802 137.773 55.915 135.863C57.1498 133.954 57.1498 131.157 57.1498 131.157C57.1498 131.157 68.5998 130.922 72.4164 134.179C76.2331 137.436 78.9272 125.418 75.2228 121.263C75.2228 121.263 73.6512 123.06 73.988 123.734L74.3247 124.407C74.3247 124.407 72.4164 116.77 66.916 115.31C66.916 115.31 63.8561 116.891 64.7125 117.785C65.5689 118.68 58.1601 112.39 55.915 116.096C55.915 116.096 50.4145 115.984 51.0881 118.006L50.7513 119.241C50.7513 119.241 46.0366 117.781 45.6999 121.263C45.6999 121.263 47.3837 121.263 48.2817 122.161C49.1797 123.06 45.0263 125.643 45.0263 125.643C45.0263 125.643 40.1994 138.896 46.7101 144.287C46.7101 144.287 46.7663 137.829 49.3481 139.401C51.93 140.974 52.4351 141.479 52.4351 141.479Z"
      fill="#2F2E41" />
    <path d="M66.0021 149.902L65.4902 151.25L69.3293 151.362L69.5853 150.127L66.0021 149.902Z"
      fill="#2F2E41" />
    <path
      d="M69.8412 145.073C69.8412 145.073 64.0825 143.501 60.6273 148.218L59.8595 149.116C59.8595 149.116 52.5652 140.917 53.2051 137.885L51.6694 137.997L50.1338 145.859C50.1338 145.859 54.9967 154.283 61.7791 154.619C61.7791 154.619 68.3055 156.192 69.7132 153.496C71.1209 150.801 73.5445 146.826 73.5445 146.826L69.8412 145.073H69.8412ZM68.7937 152.598H64.9783C64.0825 152.598 61.7791 149.341 61.7791 149.341C63.0588 147.319 66.8979 147.207 66.8979 147.207H71.0669L71.3768 148.442L68.7937 152.598H68.7937Z"
      fill="#2F2E41" />
    <path d="M347.742 365.237L341.483 363.883L343.722 339.082L352.96 341.08L347.742 365.237Z"
      fill="#A0616A" />
    <path
      d="M326.327 360.458C326.061 360.745 325.729 361.783 325.647 362.164C325.393 363.338 326.139 364.496 327.312 364.749L346.697 368.94C347.498 369.113 348.287 368.604 348.46 367.803L348.634 366.996C348.634 366.996 350.117 364.776 348.789 361.358C348.789 361.358 345.829 363.17 342.955 358.708L342.297 356.515L333.233 360.55L328.779 360.147C327.805 360.058 326.993 359.741 326.327 360.458L326.327 360.458Z"
      fill="#2F2E41" />
    <path d="M336.546 363.339L331.324 359.63L343.135 337.712L350.843 343.185L336.546 363.339Z"
      fill="#A0616A" />
    <path
      d="M318.737 350.516C318.38 350.674 317.667 351.498 317.441 351.816C316.746 352.796 316.976 354.153 317.955 354.848L334.129 366.332C334.797 366.807 335.722 366.649 336.196 365.981L336.674 365.308C336.674 365.308 338.91 363.851 339.034 360.185C339.034 360.185 335.6 360.686 334.712 355.453L334.97 353.177L325.05 353.319L321.114 351.194C320.253 350.73 319.631 350.119 318.737 350.516L318.737 350.516V350.516Z"
      fill="#2F2E41" />
    <path
      d="M411.777 240.724C411.777 240.724 421.516 253.97 402.039 268.863L362.274 256.15L376.476 226.515L389.055 219.613L411.777 240.724Z"
      fill="#2F2E41" />
    <path
      d="M362.274 256.15L346.855 286.192L337.117 348.712L349.29 349.524L361.463 290.252L382.968 258.18L367.955 251.279"
      fill="#2F2E41" />
    <path
      d="M402.039 259.427V268.863L374.447 299.183C374.447 299.183 374.447 321.918 363.897 332.473L351.725 351.147L341.175 345.464L356.594 291.064L384.185 255.338L402.039 259.427Z"
      fill="#2F2E41" />
    <path
      d="M382.432 165.874L386.616 185.701L402.568 181.8C402.568 181.8 394.683 165.391 396.252 158.891L382.432 165.874Z"
      fill="#A0616A" />
    <path opacity="0.1"
      d="M382.432 165.874L386.616 185.701L402.568 181.8C402.568 181.8 394.683 165.391 396.252 158.891L382.432 165.874Z"
      fill="black" />
    <path
      d="M397.576 168.867L385.403 174.55C385.403 174.55 379.141 178.38 379.026 180.931C378.911 183.482 379.722 195.661 379.722 195.661C379.722 195.661 374.853 200.532 378.099 210.276L376.476 226.515L412.995 246.001L409.748 211.9L411.372 180.234L397.576 168.867Z"
      fill="#E6E6E6" />
    <path
      d="M408.502 261.267C407.077 264.539 404.235 266.455 402.154 265.547C400.073 264.639 399.542 261.252 400.968 257.979C401.52 256.664 402.378 255.5 403.472 254.585L409.685 240.798L416.089 243.854L409.284 257.12C409.358 258.545 409.09 259.967 408.502 261.267V261.267Z"
      fill="#A0616A" />
    <path
      d="M402.039 182.264C402.039 182.264 410.966 176.58 414.212 183.076C417.458 189.571 424.762 222.861 424.762 222.861L414.212 254.527L404.474 250.467L412.995 216.388L402.039 182.264Z"
      fill="#E6E6E6" />
    <path
      d="M356.288 256.156C353.758 258.672 350.41 259.406 348.809 257.795C347.209 256.184 347.963 252.839 350.494 250.322C351.491 249.302 352.718 248.537 354.071 248.089L364.924 237.563L369.753 242.764L358.541 252.589C358.085 253.941 357.313 255.164 356.288 256.156Z"
      fill="#A0616A" />
    <path
      d="M379.369 180.327C379.369 180.327 394.932 179.69 395.558 186.925C396.184 194.16 385.545 226.444 385.545 226.444L364.078 251.994L356.519 244.63L376.989 216.089L379.369 180.327Z"
      fill="#E6E6E6" />
    <path
      d="M424.306 266.071L324.79 250.011C323.145 249.746 322.023 248.191 322.288 246.546C322.554 244.901 324.107 243.778 325.752 244.044L425.268 260.103C426.912 260.368 428.034 261.922 427.769 263.568C427.503 265.213 425.95 266.336 424.306 266.071V266.071Z"
      fill="#6C63FF" />
    <path
      d="M295.147 249.191C299.233 249.191 302.546 245.877 302.546 241.788C302.546 237.699 299.233 234.384 295.147 234.384C291.06 234.384 287.747 237.699 287.747 241.788C287.747 245.877 291.06 249.191 295.147 249.191Z"
      fill="#6C63FF" />
    <path
      d="M292.371 253.839L292.633 252.215C298.675 253.19 304.384 249.065 305.359 243.019C306.333 236.974 302.21 231.262 296.168 230.287L296.43 228.662C303.367 229.782 308.101 236.34 306.982 243.281C305.863 250.222 299.309 254.958 292.371 253.839Z"
      fill="#3F3D56" />
    <path
      d="M384.028 170.088C390.796 170.088 396.284 164.598 396.284 157.826C396.284 151.053 390.796 145.563 384.028 145.563C377.259 145.563 371.771 151.053 371.771 157.826C371.771 164.598 377.259 170.088 384.028 170.088Z"
      fill="#A0616A" />
    <path
      d="M391.27 157.826C391.27 157.826 383.619 150.877 378.717 153.33C373.814 155.782 371.363 157.417 371.363 157.417C371.363 157.417 367.278 151.286 373.406 145.972C373.406 145.972 360.933 140.52 370.029 132.005C379.125 123.491 387.296 126.761 387.296 126.761C387.296 126.761 398.326 131.666 390.564 141.476C390.564 141.476 401.872 148.651 396.014 160.392C396.014 160.392 395.467 152.921 393.833 154.965C392.198 157.008 391.27 157.826 391.27 157.826V157.826Z"
      fill="#2F2E41" />
    <path
      d="M138.167 199.853C133.482 188.327 128.796 176.802 124.111 165.277C123.464 163.685 121.437 163.628 120.805 165.277C116.176 177.36 113.151 189.969 111.696 202.824C111.449 205.014 114.879 204.996 115.125 202.824C115.694 197.794 116.539 192.8 117.623 187.861C121.484 188.063 125.377 187.63 129.102 186.598C131.022 191.32 132.942 196.042 134.861 200.764C135.682 202.782 138.999 201.9 138.167 199.853H138.167ZM118.401 184.47C119.555 179.741 120.94 175.068 122.546 170.47L127.8 183.395C124.723 184.203 121.575 184.563 118.401 184.47Z"
      fill="white" />
    <path
      d="M144.774 202.735C146.677 202.735 148.22 201.192 148.22 199.288C148.22 197.384 146.677 195.841 144.774 195.841C142.872 195.841 141.329 197.384 141.329 199.288C141.329 201.192 142.872 202.735 144.774 202.735Z"
      fill="white" />
    <path
      d="M108.599 172.286C110.502 172.286 112.044 170.743 112.044 168.839C112.044 166.936 110.502 165.392 108.599 165.392C106.696 165.392 105.154 166.936 105.154 168.839C105.154 170.743 106.696 172.286 108.599 172.286Z"
      fill="white" />
  </g>
  <defs>
    <clipPath id="clip0_181_339">
      <rect width="471" height="371" fill="white" />
    </clipPath>
  </defs>
</svg>