<svg width="14" height="24" viewBox="0 0 14 24" fill="none" xmlns="http://www.w3.org/2000/svg">
  <path
    d="M7.53635 10.5333C4.41454 9.74667 3.41061 8.93333 3.41061 7.66667C3.41061 6.21333 4.79961 5.2 7.12377 5.2C9.57171 5.2 10.4794 6.33333 10.5619 8H13.6012C13.5049 5.70667 12.0609 3.6 9.18664 2.92V0H5.0609V2.88C2.39293 3.44 0.247544 5.12 0.247544 7.69333C0.247544 10.7733 2.87426 12.3067 6.7112 13.2C10.1493 14 10.8369 15.1733 10.8369 16.4133C10.8369 17.3333 10.1631 18.8 7.12377 18.8C4.29077 18.8 3.17682 17.5733 3.02554 16H0C0.165029 18.92 2.42043 20.56 5.0609 21.1067V24H9.18664V21.1333C11.8684 20.64 14 19.1333 14 16.4C14 12.6133 10.6582 11.32 7.53635 10.5333Z"
    fill="currentColor" />
</svg>